<svg width="128" height="128" viewBox="0 0 128 128" xmlns="http://www.w3.org/2000/svg">
  <rect width="128" height="128" rx="24" fill="#181c20"/>
  <polyline points="0,80 16,70 32,90 48,60 64,80 80,60 96,90 112,70 128,80" fill="none" stroke="#4ecdc4" stroke-width="4" stroke-linecap="round"/>
  <polyline points="0,100 16,90 32,110 48,80 64,100 80,80 96,110 112,90 128,100" fill="none" stroke="#ffe066" stroke-width="3" stroke-linecap="round"/>
  <polyline points="0,120 16,110 32,128 48,100 64,120 80,100 96,128 112,110 128,120" fill="none" stroke="#9d4edd" stroke-width="2" stroke-linecap="round"/>
  <text x="50%" y="120" text-anchor="middle" font-size="18" fill="#4ecdc4" font-family="Arial" opacity="0.7">Wave</text>
</svg>
